<mxfile host="app.diagrams.net" modified="2022-09-02T00:24:05.726Z" agent="5.0 (Macintosh; Intel Mac OS X 10_15_7) AppleWebKit/537.36 (KHTML, like Gecko) Chrome/104.0.0.0 Safari/537.36" etag="pXnzZLloAZUIGeA0u7bg" version="20.2.7" type="github">
  <diagram id="ua6vYQf1JVs-a21c8JEg" name="หน้า-1">
    <mxGraphModel dx="33" dy="506" grid="1" gridSize="10" guides="1" tooltips="1" connect="1" arrows="1" fold="1" page="1" pageScale="1" pageWidth="827" pageHeight="1169" math="0" shadow="0">
      <root>
        <mxCell id="0" />
        <mxCell id="1" parent="0" />
        <mxCell id="pEs_G7PRkT_eAWiX3zkS-31" value="เริ่มต้น" style="ellipse;whiteSpace=wrap;html=1;rounded=1;glass=0;strokeWidth=1;shadow=0;" vertex="1" parent="1">
          <mxGeometry x="913.2283870967742" y="47.69230769230769" width="84.17032258064516" height="30.76923076923077" as="geometry" />
        </mxCell>
        <mxCell id="pEs_G7PRkT_eAWiX3zkS-32" value="สิ้นสุด" style="ellipse;whiteSpace=wrap;html=1;rounded=1;glass=0;strokeWidth=1;shadow=0;" vertex="1" parent="1">
          <mxGeometry x="1544.505806451613" y="90" width="79.4941935483871" height="30.76923076923077" as="geometry" />
        </mxCell>
        <mxCell id="pEs_G7PRkT_eAWiX3zkS-33" value="&lt;span style=&quot;color: rgb(0, 0, 0); font-family: Helvetica; font-size: 12px; font-style: normal; font-variant-ligatures: normal; font-variant-caps: normal; font-weight: 400; letter-spacing: normal; orphans: 2; text-align: center; text-indent: 0px; text-transform: none; widows: 2; word-spacing: 0px; -webkit-text-stroke-width: 0px; background-color: rgb(248, 249, 250); text-decoration-thickness: initial; text-decoration-style: initial; text-decoration-color: initial; float: none; display: inline !important;&quot;&gt;ดึงข้อมูลประวัติการขอคำร้องจาก Table&lt;br&gt;&lt;/span&gt;Request ที่ verifyToken ตรงกัน" style="rounded=1;whiteSpace=wrap;html=1;" vertex="1" parent="1">
          <mxGeometry x="893.87" y="143.85" width="120.8" height="70" as="geometry" />
        </mxCell>
        <mxCell id="pEs_G7PRkT_eAWiX3zkS-34" style="edgeStyle=orthogonalEdgeStyle;rounded=0;orthogonalLoop=1;jettySize=auto;html=1;entryX=0.5;entryY=0;entryDx=0;entryDy=0;" edge="1" parent="1" source="pEs_G7PRkT_eAWiX3zkS-31" target="pEs_G7PRkT_eAWiX3zkS-33">
          <mxGeometry relative="1" as="geometry" />
        </mxCell>
        <mxCell id="pEs_G7PRkT_eAWiX3zkS-35" value="ส่ง Error status 500" style="whiteSpace=wrap;html=1;rounded=1;" vertex="1" parent="1">
          <mxGeometry x="1175.0916129032257" y="97.6923076923077" width="112.22709677419354" height="46.15384615384615" as="geometry" />
        </mxCell>
        <mxCell id="pEs_G7PRkT_eAWiX3zkS-36" value="ตรวจสอบข้อมูล" style="whiteSpace=wrap;html=1;rounded=1;" vertex="1" parent="1">
          <mxGeometry x="899.2" y="350.7692307692308" width="112.22709677419354" height="46.15384615384615" as="geometry" />
        </mxCell>
        <mxCell id="pEs_G7PRkT_eAWiX3zkS-37" style="edgeStyle=orthogonalEdgeStyle;rounded=0;orthogonalLoop=1;jettySize=auto;html=1;entryX=0;entryY=0.5;entryDx=0;entryDy=0;endArrow=block;endFill=0;" edge="1" parent="1" source="pEs_G7PRkT_eAWiX3zkS-39" target="pEs_G7PRkT_eAWiX3zkS-35">
          <mxGeometry relative="1" as="geometry" />
        </mxCell>
        <mxCell id="pEs_G7PRkT_eAWiX3zkS-38" value="" style="edgeStyle=orthogonalEdgeStyle;rounded=0;orthogonalLoop=1;jettySize=auto;html=1;endArrow=block;endFill=0;" edge="1" parent="1" source="pEs_G7PRkT_eAWiX3zkS-39" target="pEs_G7PRkT_eAWiX3zkS-36">
          <mxGeometry relative="1" as="geometry" />
        </mxCell>
        <mxCell id="pEs_G7PRkT_eAWiX3zkS-39" value="ดึงข้อมูล" style="rhombus;whiteSpace=wrap;html=1;rounded=1;" vertex="1" parent="1">
          <mxGeometry x="917.9045161290323" y="240" width="74.81806451612903" height="61.53846153846154" as="geometry" />
        </mxCell>
        <mxCell id="pEs_G7PRkT_eAWiX3zkS-40" value="" style="edgeStyle=orthogonalEdgeStyle;rounded=0;orthogonalLoop=1;jettySize=auto;html=1;endArrow=block;endFill=0;" edge="1" parent="1" source="pEs_G7PRkT_eAWiX3zkS-33" target="pEs_G7PRkT_eAWiX3zkS-39">
          <mxGeometry relative="1" as="geometry" />
        </mxCell>
        <mxCell id="pEs_G7PRkT_eAWiX3zkS-41" value="ไม่สำเร็จ" style="text;html=1;align=center;verticalAlign=middle;resizable=0;points=[];autosize=1;strokeColor=none;fillColor=none;" vertex="1" parent="1">
          <mxGeometry x="992.7225806451613" y="236.1538461538462" width="70" height="30" as="geometry" />
        </mxCell>
        <mxCell id="pEs_G7PRkT_eAWiX3zkS-42" value="สำเร็จ" style="text;html=1;align=center;verticalAlign=middle;resizable=0;points=[];autosize=1;strokeColor=none;fillColor=none;" vertex="1" parent="1">
          <mxGeometry x="964.665806451613" y="316.9230769230769" width="50" height="30" as="geometry" />
        </mxCell>
        <mxCell id="pEs_G7PRkT_eAWiX3zkS-43" value="มีข้อมูล" style="rhombus;whiteSpace=wrap;html=1;rounded=1;" vertex="1" parent="1">
          <mxGeometry x="1165.7393548387097" y="343.0769230769231" width="74.81806451612903" height="61.53846153846154" as="geometry" />
        </mxCell>
        <mxCell id="pEs_G7PRkT_eAWiX3zkS-44" value="" style="edgeStyle=orthogonalEdgeStyle;rounded=0;orthogonalLoop=1;jettySize=auto;html=1;endArrow=block;endFill=0;" edge="1" parent="1" source="pEs_G7PRkT_eAWiX3zkS-36" target="pEs_G7PRkT_eAWiX3zkS-43">
          <mxGeometry relative="1" as="geometry" />
        </mxCell>
        <mxCell id="pEs_G7PRkT_eAWiX3zkS-45" value="ส่ง Error status 404" style="whiteSpace=wrap;html=1;rounded=1;" vertex="1" parent="1">
          <mxGeometry x="1175.0916129032257" y="170.76923076923077" width="112.22709677419354" height="46.15384615384615" as="geometry" />
        </mxCell>
        <mxCell id="pEs_G7PRkT_eAWiX3zkS-46" value="" style="edgeStyle=orthogonalEdgeStyle;rounded=0;orthogonalLoop=1;jettySize=auto;html=1;endArrow=block;endFill=0;" edge="1" parent="1" source="pEs_G7PRkT_eAWiX3zkS-43" target="pEs_G7PRkT_eAWiX3zkS-45">
          <mxGeometry relative="1" as="geometry">
            <Array as="points">
              <mxPoint x="1203.1483870967743" y="324.61538461538464" />
              <mxPoint x="1128.3303225806453" y="324.61538461538464" />
              <mxPoint x="1128.3303225806453" y="193.84615384615387" />
            </Array>
          </mxGeometry>
        </mxCell>
        <mxCell id="pEs_G7PRkT_eAWiX3zkS-47" value="ไม่พบข้อมูล" style="text;html=1;align=center;verticalAlign=middle;resizable=0;points=[];autosize=1;strokeColor=none;fillColor=none;" vertex="1" parent="1">
          <mxGeometry x="1137.6825806451614" y="293.84615384615387" width="80" height="30" as="geometry" />
        </mxCell>
        <mxCell id="pEs_G7PRkT_eAWiX3zkS-48" value="พบข้อมูล" style="text;html=1;align=center;verticalAlign=middle;resizable=0;points=[];autosize=1;strokeColor=none;fillColor=none;" vertex="1" parent="1">
          <mxGeometry x="1230.269935483871" y="373.84615384615387" width="70" height="30" as="geometry" />
        </mxCell>
        <mxCell id="pEs_G7PRkT_eAWiX3zkS-50" value="" style="edgeStyle=orthogonalEdgeStyle;rounded=0;orthogonalLoop=1;jettySize=auto;html=1;endArrow=block;endFill=0;entryX=0;entryY=0.5;entryDx=0;entryDy=0;" edge="1" parent="1" source="pEs_G7PRkT_eAWiX3zkS-43" target="pEs_G7PRkT_eAWiX3zkS-57">
          <mxGeometry relative="1" as="geometry">
            <mxPoint x="1300.2732258064516" y="300.76615384615377" as="targetPoint" />
          </mxGeometry>
        </mxCell>
        <mxCell id="pEs_G7PRkT_eAWiX3zkS-51" value="" style="edgeStyle=orthogonalEdgeStyle;rounded=0;orthogonalLoop=1;jettySize=auto;html=1;endArrow=block;endFill=0;" edge="1" parent="1" source="pEs_G7PRkT_eAWiX3zkS-52" target="pEs_G7PRkT_eAWiX3zkS-32">
          <mxGeometry relative="1" as="geometry" />
        </mxCell>
        <mxCell id="pEs_G7PRkT_eAWiX3zkS-52" value="" style="ellipse;whiteSpace=wrap;html=1;aspect=fixed;" vertex="1" parent="1">
          <mxGeometry x="1446.3070967741935" y="93.84615384615384" width="21.58213399503722" height="21.58213399503722" as="geometry" />
        </mxCell>
        <mxCell id="pEs_G7PRkT_eAWiX3zkS-53" style="edgeStyle=orthogonalEdgeStyle;rounded=0;orthogonalLoop=1;jettySize=auto;html=1;entryX=0;entryY=0.5;entryDx=0;entryDy=0;endArrow=block;endFill=0;" edge="1" parent="1" source="pEs_G7PRkT_eAWiX3zkS-35" target="pEs_G7PRkT_eAWiX3zkS-52">
          <mxGeometry relative="1" as="geometry" />
        </mxCell>
        <mxCell id="pEs_G7PRkT_eAWiX3zkS-54" style="edgeStyle=orthogonalEdgeStyle;rounded=0;orthogonalLoop=1;jettySize=auto;html=1;endArrow=block;endFill=0;entryX=0;entryY=1;entryDx=0;entryDy=0;" edge="1" parent="1" source="pEs_G7PRkT_eAWiX3zkS-45" target="pEs_G7PRkT_eAWiX3zkS-52">
          <mxGeometry relative="1" as="geometry">
            <mxPoint x="1380" y="140" as="targetPoint" />
            <Array as="points">
              <mxPoint x="1370" y="194" />
              <mxPoint x="1370" y="130" />
              <mxPoint x="1450" y="130" />
            </Array>
          </mxGeometry>
        </mxCell>
        <mxCell id="pEs_G7PRkT_eAWiX3zkS-62" value="" style="edgeStyle=orthogonalEdgeStyle;rounded=0;orthogonalLoop=1;jettySize=auto;html=1;" edge="1" parent="1" source="pEs_G7PRkT_eAWiX3zkS-59" target="pEs_G7PRkT_eAWiX3zkS-52">
          <mxGeometry relative="1" as="geometry">
            <Array as="points">
              <mxPoint x="1550" y="529" />
              <mxPoint x="1550" y="130" />
              <mxPoint x="1457" y="130" />
            </Array>
          </mxGeometry>
        </mxCell>
        <mxCell id="pEs_G7PRkT_eAWiX3zkS-74" value="" style="group" vertex="1" connectable="0" parent="1">
          <mxGeometry x="1300.27" y="230" width="199.73000000000002" height="329.23" as="geometry" />
        </mxCell>
        <mxCell id="pEs_G7PRkT_eAWiX3zkS-57" value="ค้นหาข้อมูลไฟลเอกสารแนบโดยหาจาก Table requestAttach ที่รหัสอ้างอิงเอกสารคำร้องเหมือนกัน" style="whiteSpace=wrap;html=1;rounded=1;" vertex="1" parent="pEs_G7PRkT_eAWiX3zkS-74">
          <mxGeometry width="180" height="46.15" as="geometry" />
        </mxCell>
        <mxCell id="pEs_G7PRkT_eAWiX3zkS-59" value="ส่งกลับข้อมูลเอกสารคำร้องและเอกสารไฟล์แนบ" style="whiteSpace=wrap;html=1;rounded=1;" vertex="1" parent="pEs_G7PRkT_eAWiX3zkS-74">
          <mxGeometry x="29.999999999999773" y="269.23" width="120" height="60" as="geometry" />
        </mxCell>
        <mxCell id="pEs_G7PRkT_eAWiX3zkS-65" value="ตรวจสอบว่ามีข้อมูลเอกสารร้องอีกหรือไม่" style="whiteSpace=wrap;html=1;rounded=1;" vertex="1" parent="pEs_G7PRkT_eAWiX3zkS-74">
          <mxGeometry x="30" y="79.23499999999996" width="120" height="60" as="geometry" />
        </mxCell>
        <mxCell id="pEs_G7PRkT_eAWiX3zkS-66" value="" style="edgeStyle=orthogonalEdgeStyle;rounded=0;orthogonalLoop=1;jettySize=auto;html=1;" edge="1" parent="pEs_G7PRkT_eAWiX3zkS-74" source="pEs_G7PRkT_eAWiX3zkS-57" target="pEs_G7PRkT_eAWiX3zkS-65">
          <mxGeometry relative="1" as="geometry" />
        </mxCell>
        <mxCell id="pEs_G7PRkT_eAWiX3zkS-70" value="" style="edgeStyle=orthogonalEdgeStyle;rounded=0;orthogonalLoop=1;jettySize=auto;html=1;" edge="1" parent="pEs_G7PRkT_eAWiX3zkS-74" source="pEs_G7PRkT_eAWiX3zkS-68" target="pEs_G7PRkT_eAWiX3zkS-59">
          <mxGeometry relative="1" as="geometry" />
        </mxCell>
        <mxCell id="pEs_G7PRkT_eAWiX3zkS-72" style="edgeStyle=orthogonalEdgeStyle;rounded=0;orthogonalLoop=1;jettySize=auto;html=1;entryX=1;entryY=0.5;entryDx=0;entryDy=0;" edge="1" parent="pEs_G7PRkT_eAWiX3zkS-74" source="pEs_G7PRkT_eAWiX3zkS-68" target="pEs_G7PRkT_eAWiX3zkS-57">
          <mxGeometry relative="1" as="geometry">
            <Array as="points">
              <mxPoint x="199.73000000000002" y="199.23000000000002" />
              <mxPoint x="199.73000000000002" y="23.230000000000018" />
            </Array>
          </mxGeometry>
        </mxCell>
        <mxCell id="pEs_G7PRkT_eAWiX3zkS-68" value="มีข้อมูล" style="rhombus;whiteSpace=wrap;html=1;rounded=1;" vertex="1" parent="pEs_G7PRkT_eAWiX3zkS-74">
          <mxGeometry x="50" y="159.2349999999999" width="80" height="80" as="geometry" />
        </mxCell>
        <mxCell id="pEs_G7PRkT_eAWiX3zkS-69" value="" style="edgeStyle=orthogonalEdgeStyle;rounded=0;orthogonalLoop=1;jettySize=auto;html=1;" edge="1" parent="pEs_G7PRkT_eAWiX3zkS-74" source="pEs_G7PRkT_eAWiX3zkS-65" target="pEs_G7PRkT_eAWiX3zkS-68">
          <mxGeometry relative="1" as="geometry" />
        </mxCell>
        <mxCell id="pEs_G7PRkT_eAWiX3zkS-71" value="ไม่ใช่" style="text;html=1;align=center;verticalAlign=middle;resizable=0;points=[];autosize=1;strokeColor=none;fillColor=none;" vertex="1" parent="pEs_G7PRkT_eAWiX3zkS-74">
          <mxGeometry x="44.73000000000002" y="234.23000000000002" width="50" height="30" as="geometry" />
        </mxCell>
        <mxCell id="pEs_G7PRkT_eAWiX3zkS-73" value="ใช่" style="text;html=1;align=center;verticalAlign=middle;resizable=0;points=[];autosize=1;strokeColor=none;fillColor=none;" vertex="1" parent="pEs_G7PRkT_eAWiX3zkS-74">
          <mxGeometry x="119.73000000000002" y="164.23000000000002" width="40" height="30" as="geometry" />
        </mxCell>
      </root>
    </mxGraphModel>
  </diagram>
</mxfile>
